<svg width="46" height="45" viewBox="0 0 46 45" fill="none" xmlns="http://www.w3.org/2000/svg">
<g id="ic">
<path id="Vector" d="M1.18664 0.0134277H45.2405C45.4419 0.0134277 45.6351 0.0934513 45.7775 0.235894C45.92 0.378337 46 0.571531 46 0.772976V43.3077C46 43.5091 45.92 43.7023 45.7775 43.8448C45.6351 43.9872 45.4419 44.0672 45.2405 44.0672H1.18664C0.985199 44.0672 0.792004 43.9872 0.649559 43.8448C0.507118 43.7023 0.427094 43.5091 0.427094 43.3077V0.772976C0.427094 0.571531 0.507118 0.378337 0.649559 0.235894C0.792004 0.0934513 0.985199 0.0134277 1.18664 0.0134277ZM44.4809 4.57072H42.9618V39.5099H44.4809V4.57072ZM1.94619 42.5481H44.4809V41.029H1.94619V42.5481ZM4.98439 16.7235V27.3572H41.4427V16.7235H4.98439ZM41.4427 15.2044V4.57072H4.98439V15.2044H41.4427ZM4.98439 28.8763V39.5099H41.4427V28.8763H4.98439ZM1.94619 39.5099H3.46529V4.57072H1.94619V39.5099ZM1.94619 3.05162H44.4809V1.53252H1.94619V3.05162Z" fill="#AFADB5"/>
<path id="Vector_2" d="M18.6561 9.12804H27.7707C27.9722 9.12804 28.1654 9.20806 28.3078 9.3505C28.4503 9.49295 28.5303 9.68614 28.5303 9.88759V12.9258C28.5303 13.1272 28.4503 13.3204 28.3078 13.4629C28.1654 13.6053 27.9722 13.6853 27.7707 13.6853H18.6561C18.4547 13.6853 18.2615 13.6053 18.1191 13.4629C17.9766 13.3204 17.8966 13.1272 17.8966 12.9258V9.88759C17.8966 9.68614 17.9766 9.49295 18.1191 9.3505C18.2615 9.20806 18.4547 9.12804 18.6561 9.12804ZM19.4157 12.1662H27.0112V10.6471H19.4157V12.1662ZM18.6561 6.08984H27.7707C27.9722 6.08984 28.1654 6.16987 28.3078 6.31231C28.4503 6.45475 28.5303 6.64795 28.5303 6.84939C28.5303 7.05084 28.4503 7.24403 28.3078 7.38647C28.1654 7.52892 27.9722 7.60894 27.7707 7.60894H18.6561C18.4547 7.60894 18.2615 7.52892 18.1191 7.38647C17.9766 7.24403 17.8966 7.05084 17.8966 6.84939C17.8966 6.64795 17.9766 6.45475 18.1191 6.31231C18.2615 6.16987 18.4547 6.08984 18.6561 6.08984ZM18.6561 21.2808H27.7707C27.9722 21.2808 28.1654 21.3608 28.3078 21.5033C28.4503 21.6457 28.5303 21.8389 28.5303 22.0404V25.0786C28.5303 25.28 28.4503 25.4732 28.3078 25.6156C28.1654 25.7581 27.9722 25.8381 27.7707 25.8381H18.6561C18.4547 25.8381 18.2615 25.7581 18.1191 25.6156C17.9766 25.4732 17.8966 25.28 17.8966 25.0786V22.0404C17.8966 21.8389 17.9766 21.6457 18.1191 21.5033C18.2615 21.3608 18.4547 21.2808 18.6561 21.2808ZM19.4157 24.319H27.0112V22.7999H19.4157V24.319ZM18.6561 18.2426H27.7707C27.9722 18.2426 28.1654 18.3226 28.3078 18.4651C28.4503 18.6075 28.5303 18.8007 28.5303 19.0022C28.5303 19.2036 28.4503 19.3968 28.3078 19.5393C28.1654 19.6817 27.9722 19.7617 27.7707 19.7617H18.6561C18.4547 19.7617 18.2615 19.6817 18.1191 19.5393C17.9766 19.3968 17.8966 19.2036 17.8966 19.0022C17.8966 18.8007 17.9766 18.6075 18.1191 18.4651C18.2615 18.3226 18.4547 18.2426 18.6561 18.2426ZM18.6561 33.4336H27.7707C27.9722 33.4336 28.1654 33.5136 28.3078 33.6561C28.4503 33.7985 28.5303 33.9917 28.5303 34.1931V37.2313C28.5303 37.4328 28.4503 37.626 28.3078 37.7684C28.1654 37.9109 27.9722 37.9909 27.7707 37.9909H18.6561C18.4547 37.9909 18.2615 37.9109 18.1191 37.7684C17.9766 37.626 17.8966 37.4328 17.8966 37.2313V34.1931C17.8966 33.9917 17.9766 33.7985 18.1191 33.6561C18.2615 33.5136 18.4547 33.4336 18.6561 33.4336ZM19.4157 36.4718H27.0112V34.9527H19.4157V36.4718ZM18.6561 30.3954H27.7707C27.9722 30.3954 28.1654 30.4754 28.3078 30.6179C28.4503 30.7603 28.5303 30.9535 28.5303 31.1549C28.5303 31.3564 28.4503 31.5496 28.3078 31.692C28.1654 31.8345 27.9722 31.9145 27.7707 31.9145H18.6561C18.4547 31.9145 18.2615 31.8345 18.1191 31.692C17.9766 31.5496 17.8966 31.3564 17.8966 31.1549C17.8966 30.9535 17.9766 30.7603 18.1191 30.6179C18.2615 30.4754 18.4547 30.3954 18.6561 30.3954Z" fill="#AFADB5"/>
</g>
</svg>
