<svg width="64" height="44" viewBox="0 0 64 44" fill="none" xmlns="http://www.w3.org/2000/svg">
<g id="ic">
<path id="Vector" d="M54.3352 13.6429H53.3473V5.73962C53.3441 3.01297 51.1344 0.80326 48.4078 0.800049H14.8187C12.0921 0.80326 9.88234 3.01297 9.87913 5.73962V13.6429H8.89122C3.98327 13.6489 0.00592748 17.6262 0 22.5341V36.3649H1.97583V43.2803H6.91539V36.3649H56.3111V43.2803H61.2506V36.3649H63.2265V22.5341C63.2205 17.6262 59.2432 13.6489 54.3352 13.6429ZM11.855 5.73962C11.855 4.10277 13.1819 2.77588 14.8187 2.77588H48.4078C50.0446 2.77588 51.3715 4.10277 51.3715 5.73962V13.6429H48.4078V9.69127C48.4078 8.05442 47.0809 6.72753 45.444 6.72753H36.5528C34.9159 6.72753 33.5891 8.05442 33.5891 9.69127V13.6429H29.6374V9.69127C29.6374 8.05442 28.3105 6.72753 26.6737 6.72753H17.7824C16.1456 6.72753 14.8187 8.05442 14.8187 9.69127V13.6429H11.855V5.73962ZM46.4319 9.69127V13.6429H35.5649V9.69127C35.5649 9.42926 35.669 9.17798 35.8542 8.99271C36.0395 8.80744 36.2908 8.70336 36.5528 8.70336H45.444C45.706 8.70336 45.9573 8.80744 46.1426 8.99271C46.3278 9.17798 46.4319 9.42926 46.4319 9.69127ZM27.6616 9.69127V13.6429H16.7945V9.69127C16.7945 9.42926 16.8986 9.17798 17.0839 8.99271C17.2691 8.80744 17.5204 8.70336 17.7824 8.70336H26.6737C26.9357 8.70336 27.187 8.80744 27.3722 8.99271C27.5575 9.17798 27.6616 9.42926 27.6616 9.69127ZM4.93957 41.3045H3.95165V36.3649H4.93957V41.3045ZM59.2748 41.3045H58.2869V36.3649H59.2748V41.3045ZM61.2506 34.3891H1.97583V29.4495H61.2506V34.3891ZM61.2506 27.4737H1.97583V22.5341C1.98015 18.7167 5.0738 15.6231 8.89122 15.6187H54.3352C58.1527 15.6231 61.2463 18.7167 61.2506 22.5341V27.4737Z" fill="#AFADB5"/>
</g>
</svg>
