<svg width="51" height="45" viewBox="0 0 51 45" fill="none" xmlns="http://www.w3.org/2000/svg">
<g id="ic">
<path id="Vector" d="M42.7302 0.980647C36.9478 0.295059 31.1281 -0.0266532 25.3054 0.017409C19.4827 -0.0266532 13.663 0.295059 7.88059 0.980647C0.9363 1.90715 0 3.07691 0 4.09893V7.36414C0 8.38615 0.9363 9.55592 7.88059 10.4824C10.2005 10.791 12.9 11.031 15.8363 11.1942L17.8926 16.337L6.59492 42.9623C6.54217 43.0865 6.52101 43.2218 6.53335 43.3561C6.54568 43.4905 6.59112 43.6197 6.6656 43.7322C6.74008 43.8446 6.84127 43.9369 6.96014 44.0007C7.079 44.0645 7.21182 44.0979 7.34673 44.0978H12.2446C12.4085 44.0979 12.5686 44.0487 12.7042 43.9566C12.8397 43.8644 12.9444 43.7336 13.0045 43.5811L22.0402 20.6454V43.2815C22.0402 43.498 22.1262 43.7056 22.2793 43.8587C22.4324 44.0118 22.64 44.0978 22.8565 44.0978H27.7543C27.9708 44.0978 28.1784 44.0118 28.3315 43.8587C28.4846 43.7056 28.5706 43.498 28.5706 43.2815V20.6438L37.6063 43.5819C37.6666 43.7342 37.7713 43.8649 37.9068 43.9569C38.0424 44.0489 38.2024 44.098 38.3663 44.0978H43.2641C43.399 44.0979 43.5318 44.0645 43.6507 44.0007C43.7695 43.9369 43.8707 43.8446 43.9452 43.7322C44.0197 43.6197 44.0651 43.4905 44.0775 43.3561C44.0898 43.2218 44.0686 43.0865 44.0159 42.9623L32.7183 16.3345L34.7753 11.1918C37.714 11.0285 40.4078 10.7885 42.7302 10.48C49.6745 9.55592 50.6108 8.38615 50.6108 7.36414V4.09893C50.6108 3.07691 49.6745 1.90715 42.7302 0.980647ZM25.3054 1.65002C38.6569 1.65002 47.3521 3.04426 48.8452 4.09893C47.3521 5.15359 38.6569 6.54784 25.3054 6.54784C11.9539 6.54784 3.25868 5.15359 1.76566 4.09893C3.25868 3.04426 11.9539 1.65002 25.3054 1.65002ZM11.6887 42.4652H8.58017L19.5268 16.6627C19.6101 16.4638 19.6124 16.2403 19.5333 16.0398L17.6322 11.2824C18.8631 11.3363 20.1284 11.3755 21.4198 11.4032L22.0231 16.2406L11.6887 42.4652ZM27.0352 15.5272H23.5765L23.0647 11.4318C23.8059 11.441 24.5528 11.4457 25.3054 11.4457C26.058 11.4457 26.8047 11.4408 27.5453 11.431L27.0352 15.5272ZM23.6728 42.4652V17.1598H26.938V42.4652H23.6728ZM31.0783 16.0398C30.9992 16.2403 31.0016 16.4638 31.0848 16.6627L42.0306 42.4652H38.9222L28.5902 16.2374L29.1943 11.4016C30.4857 11.3738 31.7509 11.3346 32.9819 11.2808L31.0783 16.0398ZM25.3054 9.81305C11.4723 9.81305 2.63829 8.31595 1.63261 7.25149V5.82459C3.64872 6.54865 5.74783 7.01651 7.88059 7.21721C13.663 7.90279 19.4827 8.22451 25.3054 8.18044C31.1281 8.22451 36.9478 7.90279 42.7302 7.21721C44.863 7.01651 46.9621 6.54865 48.9782 5.82459V7.25149C47.9725 8.31595 39.1385 9.81305 25.3054 9.81305Z" fill="#AFADB5"/>
</g>
</svg>
