<svg width="45" height="67" viewBox="0 0 45 67" fill="none" xmlns="http://www.w3.org/2000/svg">
<g id="ic">
<path id="Layer 2" d="M44.0537 36.9372C44.0546 36.4146 43.9451 35.8976 43.7325 35.4202C43.5199 34.9427 43.2089 34.5155 42.8198 34.1666C42.4308 33.8176 41.9724 33.5546 41.4748 33.395C40.9771 33.2353 40.4513 33.1825 39.9319 33.24C38.4576 33.4059 36.9814 33.5532 35.5034 33.6817L38.3302 9.402H38.5041C39.7465 9.39534 40.9358 8.89713 41.812 8.01624C42.6882 7.13535 43.18 5.94344 43.18 4.701C43.18 3.45856 42.6882 2.26664 41.812 1.38576C40.9358 0.50487 39.7465 0.00665384 38.5041 0H4.67589C3.43347 0.00665384 2.2442 0.50487 1.36802 1.38576C0.49184 2.26664 0 3.45856 0 4.701C0 5.94344 0.49184 7.13535 1.36802 8.01624C2.2442 8.89713 3.43347 9.39534 4.67589 9.402H5.24987L8.07879 33.7008C6.96481 33.5911 5.84839 33.4649 4.72955 33.3222C3.7575 33.1957 2.77499 33.4605 1.99818 34.0584C1.22137 34.6563 0.713885 35.5383 0.587367 36.5103C0.460849 37.4824 0.725661 38.4649 1.32355 39.2417C1.92143 40.0185 2.80342 40.526 3.77548 40.6525C4.32388 40.7251 4.87299 40.7922 5.42273 40.8538L0.874964 65.381C0.853314 65.4978 0.857629 65.6179 0.887605 65.7328C0.91758 65.8477 0.972481 65.9545 1.04841 66.0458C1.12434 66.1371 1.21943 66.2106 1.32694 66.261C1.43445 66.3114 1.55173 66.3375 1.67048 66.3375H4.30618C4.48552 66.3375 4.65977 66.2779 4.80155 66.1681C4.94332 66.0583 5.04459 65.9044 5.08942 65.7308L8.26378 53.4466H34.9067L37.952 65.7234C37.9955 65.8988 38.0966 66.0546 38.239 66.1659C38.3814 66.2773 38.557 66.3377 38.7378 66.3375H41.3735C41.4901 66.3375 41.6054 66.3123 41.7113 66.2636C41.8173 66.2149 41.9115 66.1438 41.9874 66.0553C42.0634 65.9668 42.1193 65.8629 42.1513 65.7507C42.1834 65.6386 42.1908 65.5209 42.173 65.4056L38.4029 40.8987C39.2024 40.8183 40.001 40.7284 40.7984 40.629C41.6972 40.5148 42.5235 40.0769 43.1226 39.3973C43.7218 38.7178 44.0528 37.8432 44.0537 36.9372ZM33.8587 33.816C33.486 33.8448 33.109 33.8729 32.7278 33.9001L34.4806 9.40105H36.7018L33.8587 33.816ZM31.0982 34.0073C29.9729 34.0763 28.8163 34.1354 27.6285 34.1846L28.8365 9.402H32.8572L31.0982 34.0073ZM4.67589 7.78401C3.86176 7.77862 3.0828 7.45143 2.50902 6.87384C1.93523 6.29625 1.6132 5.51515 1.6132 4.701C1.6132 3.88685 1.93523 3.10575 2.50902 2.52815C3.0828 1.95056 3.86176 1.62337 4.67589 1.61799H38.5041C39.3183 1.62337 40.0972 1.95056 40.671 2.52815C41.2448 3.10575 41.5668 3.88685 41.5668 4.701C41.5668 5.51515 41.2448 6.29625 40.671 6.87384C40.0972 7.45143 39.3183 7.77862 38.5041 7.78401H4.67589ZM27.2165 9.402L26.0057 34.243C25.6623 34.2535 25.3169 34.263 24.9695 34.2716L25.5002 9.402H27.2165ZM23.8817 9.402L23.3504 34.3023C22.4023 34.3156 21.4419 34.3204 20.4693 34.3166L19.6192 9.402H23.8817ZM18.8499 34.2992C18.4554 34.293 18.0593 34.2851 17.6616 34.2756L16.1284 9.402H18.0003L18.8499 34.2992ZM16.0377 34.2277C14.8637 34.1859 13.6796 34.1281 12.4854 34.0541L10.7222 9.402H14.5075L16.0377 34.2277ZM6.87892 9.402H9.09974L10.8549 33.9428C10.4789 33.9145 10.1024 33.8845 9.72509 33.8528L6.87892 9.402ZM3.67948 64.7195H2.64316L7.0368 41.0215C7.91268 41.1055 8.81497 41.1812 9.7437 41.2487L3.67948 64.7195ZM11.3876 41.3581C14.716 41.5603 18.2899 41.6612 21.894 41.6612C25.2692 41.6612 28.6695 41.5723 31.9182 41.3954L33.689 48.5341H9.53282L11.3876 41.3581ZM8.68176 51.8286L9.11511 50.1521H34.09L34.5058 51.8286H8.68176ZM40.4305 64.7195H39.3706L33.5604 41.2969C34.6609 41.2254 35.7394 41.1437 36.7892 41.0513L40.4305 64.7195ZM40.5974 39.0237C29.9772 40.354 13.8964 40.3648 3.98851 39.0487C3.44345 38.976 2.94938 38.6903 2.61455 38.2542C2.27971 37.818 2.13139 37.2669 2.20208 36.7215C2.27278 36.1762 2.55672 35.6811 2.99171 35.3448C3.4267 35.0084 3.97728 34.8581 4.52285 34.9268C17.9714 36.6605 31.3006 35.8406 40.1131 34.8478C40.4044 34.8135 40.6997 34.8419 40.9792 34.9312C41.2586 35.0205 41.5157 35.1686 41.7332 35.3655C42.0342 35.6344 42.2515 35.9843 42.3593 36.3733C42.4671 36.7623 42.4607 37.1741 42.3411 37.5596C42.2214 37.9451 41.9934 38.2881 41.6843 38.5477C41.3752 38.8072 40.9979 38.9725 40.5975 39.0237H40.5974Z" fill="#AFADB5"/>
</g>
</svg>
