<svg width="87" height="62" viewBox="0 0 87 62" fill="none" xmlns="http://www.w3.org/2000/svg">
<path id="&#226;&#128;&#156;" d="M37.9859 23.905C37.9859 30.4475 37.0056 36.0672 35.0451 40.7644C33.0845 45.6293 30.5521 49.5715 27.4479 52.5911C24.3437 55.7785 20.831 58.0432 16.9099 59.3852C12.8253 60.895 8.82252 61.6499 4.9014 61.6499V52.8428C9.14928 52.8428 13.1521 51.333 16.9099 48.3134C20.5042 45.4615 22.6282 41.5193 23.2817 36.4866C22.7915 36.6544 22.2197 36.8221 21.5662 36.9899C21.076 37.1577 20.5042 37.3254 19.8507 37.4932C19.0338 37.6609 18.1352 37.7448 17.1549 37.7448C12.2535 37.7448 8.16901 35.8156 4.9014 31.9572C1.63379 28.2666 -7.62939e-06 23.905 -7.62939e-06 18.8723C-7.62939e-06 13.8397 1.71549 9.39419 5.14648 5.53582C8.41409 1.84521 12.8253 -9.91821e-05 18.3803 -9.91821e-05C24.5887 -9.91821e-05 29.4084 2.34847 32.8394 7.04561C36.2704 11.9105 37.9859 17.5303 37.9859 23.905ZM87 23.905C87 30.4475 86.0197 36.0672 84.0592 40.7644C82.0986 45.6293 79.5662 49.5715 76.462 52.5911C73.3577 55.7785 69.8451 58.0432 65.9239 59.3852C61.8394 60.895 57.8366 61.6499 53.9155 61.6499V52.8428C58.1634 52.8428 62.1662 51.333 65.9239 48.3134C69.5183 45.4615 71.6423 41.5193 72.2958 36.4866C71.8056 36.6544 71.2338 36.8221 70.5803 36.9899C70.0901 37.1577 69.5183 37.3254 68.8648 37.4932C68.0479 37.6609 67.1493 37.7448 66.169 37.7448C61.2676 37.7448 57.1831 35.8156 53.9155 31.9572C50.6479 28.2666 49.0141 23.905 49.0141 18.8723C49.0141 13.8397 50.7296 9.39419 54.1606 5.53582C57.4282 1.84521 61.8394 -9.91821e-05 67.3944 -9.91821e-05C73.6028 -9.91821e-05 78.4225 2.34847 81.8535 7.04561C85.2845 11.9105 87 17.5303 87 23.905Z" fill="url(#paint0_linear_66_17)"/>
<defs>
<linearGradient id="paint0_linear_66_17" x1="43.5" y1="61.6499" x2="43.5" y2="-9.91821e-05" gradientUnits="userSpaceOnUse">
<stop stop-color="#236000" stop-opacity="0.1"/>
<stop offset="1" stop-color="#236000" stop-opacity="0"/>
</linearGradient>
</defs>
</svg>
