<svg width="295" height="295" viewBox="0 0 295 295" fill="none" xmlns="http://www.w3.org/2000/svg">
<path d="M149.977 219.561C157.017 219.648 166.498 219.558 173.369 218.458M173.369 218.458C174.161 218.332 171.498 212.935 171.354 212.697C168.205 207.465 164.467 202.805 160.556 198.138M173.369 218.458C136.15 209.604 112.137 179.28 114.741 152.129C114.999 149.438 115.283 146.509 115.826 143.619M115.826 143.619C116.691 139.015 118.214 134.508 121.339 131.21C124.223 128.166 129.262 125.415 133.519 126.478C141.47 128.462 142.543 139.279 136.393 144.236C130.989 148.591 120.753 148.402 115.826 143.619ZM115.826 143.619C115.722 143.518 115.621 143.415 115.521 143.31C91.5999 117.97 111.354 82.075 137.875 71.598" stroke="#236000" stroke-opacity="0.1" stroke-width="5" stroke-miterlimit="1.5" stroke-linecap="round" stroke-linejoin="round"/>
</svg>
