<svg width="30" height="30" viewBox="0 0 30 30" fill="none" xmlns="http://www.w3.org/2000/svg">
<path d="M16.4875 7.5H8.4875C8.1625 7.5 7.85 7.5125 7.55 7.55C4.1875 7.8375 2.5 9.825 2.5 13.4875V18.4875C2.5 23.4875 4.5 24.475 8.4875 24.475H8.9875C9.2625 24.475 9.625 24.6625 9.7875 24.875L11.2875 26.875C11.95 27.7625 13.025 27.7625 13.6875 26.875L15.1875 24.875C15.375 24.625 15.675 24.475 15.9875 24.475H16.4875C20.15 24.475 22.1375 22.8 22.425 19.425C22.4625 19.125 22.475 18.8125 22.475 18.4875V13.4875C22.475 9.5 20.475 7.5 16.4875 7.5ZM8.125 17.5C7.425 17.5 6.875 16.9375 6.875 16.25C6.875 15.5625 7.4375 15 8.125 15C8.8125 15 9.375 15.5625 9.375 16.25C9.375 16.9375 8.8125 17.5 8.125 17.5ZM12.4875 17.5C11.7875 17.5 11.2375 16.9375 11.2375 16.25C11.2375 15.5625 11.8 15 12.4875 15C13.175 15 13.7375 15.5625 13.7375 16.25C13.7375 16.9375 13.1875 17.5 12.4875 17.5ZM16.8625 17.5C16.1625 17.5 15.6125 16.9375 15.6125 16.25C15.6125 15.5625 16.175 15 16.8625 15C17.55 15 18.1125 15.5625 18.1125 16.25C18.1125 16.9375 17.55 17.5 16.8625 17.5Z" fill="url(#paint0_linear_57_360)"/>
<path d="M27.4751 8.4875V13.4875C27.4751 15.9875 26.7001 17.6875 25.1501 18.625C24.7751 18.85 24.3376 18.55 24.3376 18.1125L24.3501 13.4875C24.3501 8.4875 21.4876 5.625 16.4876 5.625L8.87506 5.6375C8.43756 5.6375 8.13756 5.2 8.36256 4.825C9.30006 3.275 11.0001 2.5 13.4876 2.5H21.4876C25.4751 2.5 27.4751 4.5 27.4751 8.4875Z" fill="url(#paint1_linear_57_360)"/>
<defs>
<linearGradient id="paint0_linear_57_360" x1="1.24963e-06" y1="30" x2="37.5" y2="-10.625" gradientUnits="userSpaceOnUse">
<stop offset="0.203125" stop-color="#FFB23F"/>
<stop offset="0.540676" stop-color="#FAD8A5"/>
</linearGradient>
<linearGradient id="paint1_linear_57_360" x1="38.1254" y1="-6.25" x2="5.62537" y2="8.125" gradientUnits="userSpaceOnUse">
<stop offset="0.351787" stop-color="#66ADA7"/>
<stop offset="0.884165" stop-color="#9FD3CD"/>
</linearGradient>
</defs>
</svg>
