<svg width="30" height="30" viewBox="0 0 30 30" fill="none" xmlns="http://www.w3.org/2000/svg">
<path d="M22.2625 6.8625V7.7875L17.8375 5.225C16.1625 4.2625 13.825 4.2625 12.1625 5.225L7.73755 7.8V6.8625C7.73755 4.05 9.27505 2.5 12.0875 2.5H17.9125C20.725 2.5 22.2625 4.05 22.2625 6.8625Z" fill="url(#paint0_linear_57_354)"/>
<path d="M22.3 9.9623L22.125 9.8748L20.425 8.8998L16.9 6.8623C15.825 6.2373 14.175 6.2373 13.1 6.8623L9.575 8.88731L7.875 9.8873L7.65 9.9998C5.4625 11.4748 5.3125 11.7498 5.3125 14.1123V19.7623C5.3125 22.1248 5.4625 22.3998 7.7 23.9123L13.1 27.0248C13.6375 27.3498 14.3125 27.4873 15 27.4873C15.675 27.4873 16.3625 27.3373 16.9 27.0248L22.35 23.8748C24.55 22.3998 24.6875 22.1373 24.6875 19.7623V14.1123C24.6875 11.7498 24.5375 11.4748 22.3 9.9623ZM18.4875 16.8748L17.725 17.8123C17.6 17.9498 17.5125 18.2123 17.525 18.3998L17.6 19.5998C17.65 20.3373 17.125 20.7123 16.4375 20.4498L15.325 19.9998C15.15 19.9373 14.8625 19.9373 14.6875 19.9998L13.575 20.4373C12.8875 20.7123 12.3625 20.3248 12.4125 19.5873L12.4875 18.3873C12.5 18.1998 12.4125 17.9373 12.2875 17.7998L11.5125 16.8748C11.0375 16.3123 11.25 15.6873 11.9625 15.4998L13.125 15.1998C13.3125 15.1498 13.525 14.9748 13.625 14.8248L14.275 13.8248C14.675 13.1998 15.3125 13.1998 15.725 13.8248L16.375 14.8248C16.475 14.9873 16.7 15.1498 16.875 15.1998L18.0375 15.4998C18.75 15.6873 18.9625 16.3123 18.4875 16.8748Z" fill="url(#paint1_linear_57_354)"/>
<defs>
<linearGradient id="paint0_linear_57_354" x1="34.5002" y1="-45" x2="-11.4998" y2="26.5" gradientUnits="userSpaceOnUse">
<stop offset="0.390186" stop-color="#59A49E"/>
<stop offset="0.767343" stop-color="#A6D8D2"/>
</linearGradient>
<linearGradient id="paint1_linear_57_354" x1="7.5" y1="24.9998" x2="25" y2="5.99982" gradientUnits="userSpaceOnUse">
<stop offset="0.212076" stop-color="#FFB23F"/>
<stop offset="0.720856" stop-color="#FAD8A5"/>
</linearGradient>
</defs>
</svg>
